<svg xmlns="http://www.w3.org/2000/svg" width="216" height="71" fill="none"><path fill="#fff" d="M19.022 15.934c.74-.05 1.53-.099 2.368-.148.839-.05 1.48-.074 1.924-.074.493-.05.962-.074 1.406-.074.148 0 1.455.05 3.922.148 3.65.148 6.191.345 7.622.592 1.48.247 2.516.666 3.108 1.258.444.444.666.962.666 1.554 0 1.43-.79 2.146-2.368 2.146h-1.258c-1.48 0-3.626.099-6.438.296-2.812.148-4.49.296-5.032.444-.296.05-.493.173-.592.37-.099.148-.222.567-.37 1.258-.099.543-.617 2.467-1.554 5.772-1.085 4.144-1.9 6.857-2.442 8.14-2.368 6.956-3.626 11.445-3.774 13.468-.148 3.059-1.135 4.588-2.96 4.588-.74 0-1.357-.345-1.85-1.036-.444-.74-.666-1.628-.666-2.664 0-2.27.518-5.698 1.554-10.286.247-1.53.493-2.467.74-2.812.148-.247.222-.493.222-.74 0-.69 1.085-4.49 3.256-11.396.69-2.319 1.036-3.626 1.036-3.922 0-.099-.197-.148-.592-.148-.444 0-1.307.05-2.59.148-1.233.05-1.949.074-2.146.074h-.148c-.099-.05-.79-.025-2.072.074a58.44 58.44 0 0 1-1.998.222c-.937.099-1.579.173-1.924.222-.888.099-1.48.148-1.776.148-1.776 0-2.861-.592-3.256-1.776-.099-.395-.148-.69-.148-.888 0-1.727 1.998-2.96 5.994-3.7.296-.05.74-.148 1.332-.296.641-.148 1.036-.222 1.184-.222.79-.148 3.996-.395 9.62-.74Zm28.792 11.84c.937-.197 2.343-.296 4.218-.296 1.381 0 2.565.074 3.552.222 2.664.592 4.193 1.209 4.588 1.85.197.345.296.69.296 1.036 0 .493-.272 1.11-.814 1.85l-2.738-.074h-.444c-1.382 0-3.256.099-5.624.296-2.368.197-3.725.37-4.07.518-.395.197-.716 1.085-.962 2.664l2.294-.074c.838-.05 2.64-.074 5.402-.074 2.17 0 3.502.099 3.996.296 1.233.493 1.85 1.233 1.85 2.22 0 .099-.05.296-.148.592-.346.74-1.382 1.184-3.108 1.332-3.602.197-6.66.592-9.176 1.184-.148 0-.494.05-1.036.148-.494.099-.839.173-1.036.222-.79.099-1.258.222-1.406.37-.247.197-.69 1.135-1.332 2.812-.592 1.677-.888 2.689-.888 3.034 0 .099.296.148.888.148h.888c.444-.05.79-.074 1.036-.074 3.354-.247 5.722-.37 7.104-.37.79 0 1.825.05 3.108.148 4.193.345 6.66 1.283 7.4 2.812.098.148.148.395.148.74 0 .493-.272.913-.814 1.258-.494.247-1.283.37-2.368.37h-1.406c-.74-.05-1.406-.074-1.998-.074-4.934 0-9.226.222-12.876.666-.987.099-1.653.148-1.998.148-1.43 0-2.59-.444-3.478-1.332-.642-.641-.962-1.505-.962-2.59v-.518c.148-2.615.838-5.451 2.072-8.51.05-.197.172-.518.37-.962.197-.493.42-1.036.666-1.628.246-.641.444-1.16.592-1.554.69-1.628 1.036-2.664 1.036-3.108 0-.197-.025-.37-.074-.518a1.923 1.923 0 0 1-.074-.592c0-1.776 1.702-3.108 5.106-3.996 1.332-.345 2.072-.543 2.22-.592Zm40.03-2.368c.396-.148.74-.222 1.037-.222.74 0 1.332.247 1.776.74.444.444.666 1.011.666 1.702 0 .345-.37.937-1.11 1.776-.69.79-3.01 3.256-6.956 7.4-3.65 3.799-6.167 6.29-7.548 7.474-.839.74-1.258 1.16-1.258 1.258 0 .197.32.296.962.296.099 0 .469.025 1.11.074h5.106c5.13.099 8.658.395 10.582.888 1.924.493 2.886 1.357 2.886 2.59 0 .345-.148.69-.444 1.036-.247.296-.518.444-.814.444H88.88c-3.059 0-7.696.148-13.912.444-2.22.099-3.725.222-4.514.37-1.48.197-2.368.296-2.664.296-1.48 0-2.664-.79-3.552-2.368a2.121 2.121 0 0 1-.222-.962c0-1.085.765-2.491 2.294-4.218.937-1.085 3.01-3.133 6.216-6.142 3.207-3.059 5.106-4.785 5.698-5.18.395-.296.888-.69 1.48-1.184.592-.543.888-.863.888-.962 0-.197-.715-.296-2.146-.296-1.48 0-2.713.05-3.7.148-1.776.148-3.133.222-4.07.222-1.579 0-2.689-.296-3.33-.888-.395-.296-.592-.715-.592-1.258 0-.839.395-1.406 1.184-1.702 2.417-1.036 7.474-1.554 15.17-1.554h1.776c1.628 0 2.615-.074 2.96-.222Zm35.95 30.71c0 .987-.296 1.776-.888 2.368-.592.543-1.356.814-2.294.814-1.726 0-2.787-1.036-3.182-3.108-.049-.148-.074-.37-.074-.666 0-1.579.716-4.095 2.146-7.548.444-1.085 1.086-2.467 1.924-4.144.888-1.677 1.382-2.565 1.48-2.664.444-.247.666-.715.666-1.406 0-.197-.345-.69-1.036-1.48-1.924-2.121-4.366-5.55-7.326-10.286-2.565-3.996-3.848-7.08-3.848-9.25 0-.888.222-1.628.666-2.22.494-.592 1.11-.888 1.85-.888 1.332 0 2.319.962 2.96 2.886.346 1.135 1.776 3.922 4.292 8.362.296.543.839 1.455 1.628 2.738a179.833 179.833 0 0 1 1.628 2.516c.987 1.727 1.604 2.59 1.85 2.59h.074c.247 0 2.171-2.985 5.772-8.954 1.086-1.628 2.122-3.503 3.108-5.624 1.678-3.256 3.01-5.155 3.996-5.698.444-.148.814-.222 1.11-.222.543 0 1.012.173 1.406.518.395.345.592.913.592 1.702 0 .839-.123 1.628-.37 2.368-.69 2.417-2.022 5.6-3.996 9.546a196.634 196.634 0 0 1-5.772 10.73 219.882 219.882 0 0 0-5.328 9.842c-2.022 3.996-3.034 6.265-3.034 6.808v.37Zm36.501-28.12c-1.184-.296-1.85-.444-1.998-.444-.789 0-1.85.444-3.182 1.332-1.825 1.233-3.182 3.133-4.07 5.698-.345.937-.518 2.195-.518 3.774 0 1.53.148 2.689.444 3.478.937 2.417 2.417 4.095 4.44 5.032.839.395 1.85.592 3.034.592 1.184 0 2.121-.173 2.812-.518 2.565-1.381 4.415-3.725 5.55-7.03.543-1.727.814-3.182.814-4.366 0-2.072-.641-3.7-1.924-4.884-1.135-1.085-2.935-1.973-5.402-2.664Zm-5.18-5.698c.296-.05.863-.074 1.702-.074 2.368 0 4.218.148 5.55.444 7.943 1.776 11.914 6.142 11.914 13.098 0 2.615-.617 5.23-1.85 7.844-1.184 2.615-2.664 4.687-4.44 6.216-2.664 2.368-5.575 3.626-8.732 3.774h-.814c-2.516 0-4.884-.715-7.104-2.146-4.44-2.91-6.66-7.104-6.66-12.58 0-3.65 1.011-6.857 3.034-9.62.987-1.332 1.48-2.343 1.48-3.034 0-.197.37-.666 1.11-1.406.74-.74 1.283-1.209 1.628-1.406 1.135-.592 2.195-.962 3.182-1.11Zm45.198 3.108c.395-.148.74-.222 1.036-.222.74 0 1.332.247 1.776.74.444.444.666 1.011.666 1.702 0 .345-.37.937-1.11 1.776-.69.79-3.009 3.256-6.956 7.4-3.65 3.799-6.166 6.29-7.548 7.474-.838.74-1.258 1.16-1.258 1.258 0 .197.321.296.962.296.099 0 .469.025 1.11.074h5.106c5.131.099 8.658.395 10.582.888 1.924.493 2.886 1.357 2.886 2.59 0 .345-.148.69-.444 1.036-.246.296-.518.444-.814.444h-4.958c-3.058 0-7.696.148-13.912.444-2.22.099-3.724.222-4.514.37-1.48.197-2.368.296-2.664.296-1.48 0-2.664-.79-3.552-2.368a2.121 2.121 0 0 1-.222-.962c0-1.085.765-2.491 2.294-4.218.938-1.085 3.01-3.133 6.216-6.142 3.207-3.059 5.106-4.785 5.698-5.18.395-.296.888-.69 1.48-1.184.592-.543.888-.863.888-.962 0-.197-.715-.296-2.146-.296-1.48 0-2.713.05-3.7.148-1.776.148-3.132.222-4.07.222-1.578 0-2.688-.296-3.33-.888-.394-.296-.592-.715-.592-1.258 0-.839.395-1.406 1.184-1.702 2.418-1.036 7.474-1.554 15.17-1.554h1.776c1.628 0 2.615-.074 2.96-.222Z"/></svg>