<svg width="138" height="45" viewBox="0 0 138 45" fill="none" xmlns="http://www.w3.org/2000/svg">
<path d="M51.08 14H46.48V10H60.08V14H55.48V38H51.08V14ZM62.2103 10H74.2103V14H66.6103V21.4H72.6503V25.4H66.6103V34H74.2103V38H62.2103V10ZM75.9397 34.08L84.0997 14H76.3397V10H88.8197V13.92L80.6597 34H88.8197V38H75.9397V34.08ZM95.3519 26.08L90.0319 10H94.7119L97.7119 20.28H97.7919L100.792 10H105.072L99.7519 26.08V38H95.3519V26.08ZM112.711 38.4C110.551 38.4 108.898 37.7867 107.751 36.56C106.604 35.3333 106.031 33.6 106.031 31.36V16.64C106.031 14.4 106.604 12.6667 107.751 11.44C108.898 10.2133 110.551 9.6 112.711 9.6C114.871 9.6 116.524 10.2133 117.671 11.44C118.818 12.6667 119.391 14.4 119.391 16.64V31.36C119.391 33.6 118.818 35.3333 117.671 36.56C116.524 37.7867 114.871 38.4 112.711 38.4ZM112.711 34.4C114.231 34.4 114.991 33.48 114.991 31.64V16.36C114.991 14.52 114.231 13.6 112.711 13.6C111.191 13.6 110.431 14.52 110.431 16.36V31.64C110.431 33.48 111.191 34.4 112.711 34.4ZM121.487 34.08L129.647 14H121.887V10H134.367V13.92L126.207 34H134.367V38H121.487V34.08Z" fill="white"/>
<path d="M31.0486 13.7143V31.2857H10.7146M10.7146 31.2857L13.6194 28.3571M10.7146 31.2857L13.6194 34.2143M23.7864 2H36.8583C38.4627 2 39.7632 3.31118 39.7632 4.92857V40.0714C39.7632 41.6889 38.4627 43 36.8583 43H4.90486C3.30056 43 2 41.6889 2 40.0714V22.5C2 20.8826 3.30056 19.5714 4.90486 19.5714H20.8816V4.92857C20.8816 3.31115 22.1821 2 23.7864 2Z" stroke="white" stroke-width="3" stroke-linecap="round" stroke-linejoin="round"/>
</svg>
